<svg version="1.1" baseProfile="full" id="camera-svg" xmlns="http://www.w3.org/2000/svg" xmlns:xlink="http://www.w3.org/1999/xlink" x="0px" y="0px"
	 viewBox="0 0 140 140" style="enable-background:new 0 0 140 140;" xml:space="preserve">
<path style="fill-rule:evenodd;clip-rule:evenodd;fill:none;stroke:#363636;stroke-width:15;stroke-miterlimit:10;" d="M70,7.5
	c34.518,0,62.5,27.983,62.5,62.5s-27.983,62.5-62.5,62.5c-34.519,0-62.5-27.983-62.5-62.5S35.481,7.5,70,7.5z"/>
<path style="fill-rule:evenodd;clip-rule:evenodd;fill:none;stroke:#2AACE3;stroke-width:8;stroke-miterlimit:10;" d="M70,23.333
	c25.773,0,46.667,20.894,46.667,46.667S95.773,116.667,70,116.667S23.333,95.773,23.333,70S44.227,23.333,70,23.333z"/>
<path style="fill-rule:evenodd;clip-rule:evenodd;fill:#FCF16D;" d="M70,51.5c10.217,0,18.5,8.283,18.5,18.5S80.217,88.5,70,88.5
	S51.5,80.217,51.5,70S59.783,51.5,70,51.5z"/>
<path style="fill-rule:evenodd;clip-rule:evenodd;fill:#E71C61;" d="M109.93,76.913c-3.331,1.426-20.011,8.55-20.011,8.55
	s12.104-29.706,14.851-36.333c3.667,6.097,5.778,13.237,5.778,20.87c0,2.353-0.203,4.657-0.587,6.899
	C109.951,76.904,109.94,76.908,109.93,76.913z M94.831,67.044c0,0-13.769-33.816-14.78-36.292c-0.007-0.017-0.015-0.033-0.022-0.05
	c9.662,2.458,17.937,8.386,23.424,16.379C102.563,49.171,94.831,67.044,94.831,67.044z M85.235,50.444
	c0,0-32.137-13.158-36.554-14.939c6.194-3.837,13.497-6.054,21.319-6.054c2.455,0,4.858,0.218,7.192,0.636
	C77.992,31.977,85.235,50.444,85.235,50.444z M46.352,37.074c3.304,1.361,20.829,8.504,20.829,8.504S40.73,56.775,30.419,61.164
	c2.193-9.868,7.981-18.381,15.92-24.096C46.344,37.07,46.347,37.072,46.352,37.074z M50.444,55.401c0,0-12.176,29.501-14.871,36.019
	c-0.001,0.002-0.001,0.003-0.002,0.005c-3.877-6.217-6.12-13.559-6.12-21.425c0-2.094,0.159-4.151,0.465-6.159
	C32.873,63.045,50.444,55.401,50.444,55.401z M37.301,93.875c2.229-5.572,7.959-19.918,7.959-19.918s13.406,30.656,15.523,35.539
	c-9.589-2.229-17.872-7.861-23.509-15.554C37.283,93.919,37.292,93.899,37.301,93.875z M63.133,109.884
	c-1.917-4.717-7.913-19.556-7.913-19.556s31.049,12.258,36.019,14.217c-6.177,3.806-13.451,6.003-21.239,6.003
	c-2.329,0-4.611-0.199-6.833-0.576C63.155,109.943,63.146,109.915,63.133,109.884z M93.239,103.153
	c-3.019-1.295-19.555-8.186-19.555-8.186s31.793-13.863,35.746-15.599c0.012-0.004,0.021-0.01,0.033-0.015
	c-2.313,9.793-8.175,18.214-16.156,23.83C93.283,103.173,93.262,103.164,93.239,103.153z"/>
</svg>
