<svg version="1.1" baseProfile="full" id="cv-svg" xmlns="http://www.w3.org/2000/svg" xmlns:xlink="http://www.w3.org/1999/xlink" x="0px" y="0px"
	viewBox="0 0 83.473 46.268" style="enable-background:new 0 0 83.473 46.268;"
	 xml:space="preserve">
<g>
	<path class="c-svg" d="M1.606,31.295c1.069,2.827,2.559,5.355,4.464,7.582c1.905,2.228,4.188,4.017,6.846,5.367
		c2.656,1.348,5.568,2.023,8.74,2.023c1.797,0,3.64-0.237,5.525-0.707c1.885-0.471,3.662-1.157,5.334-2.057
		c1.668-0.9,3.157-2.013,4.464-3.342c1.307-1.326,2.282-2.827,2.927-4.498L29.688,29.56c-0.345,1.028-0.805,1.896-1.384,2.603
		c-0.579,0.706-1.221,1.285-1.928,1.734c-0.705,0.451-1.446,0.771-2.216,0.966c-0.77,0.191-1.52,0.288-2.248,0.288
		c-1.458,0-2.755-0.331-3.888-0.997c-1.138-0.663-2.1-1.552-2.893-2.666c-0.793-1.113-1.392-2.398-1.8-3.856
		c-0.408-1.454-0.61-2.977-0.61-4.563c0-1.413,0.171-2.836,0.513-4.271c0.342-1.435,0.89-2.721,1.64-3.856
		c0.748-1.135,1.692-2.056,2.827-2.764c1.135-0.706,2.496-1.06,4.079-1.06c0.688,0,1.438,0.087,2.25,0.257
		c0.813,0.173,1.583,0.472,2.313,0.899c0.728,0.43,1.403,1.008,2.025,1.734c0.619,0.73,1.124,1.65,1.509,2.765l9.576-6.812
		c-1.458-2.998-3.708-5.408-6.749-7.229C29.665,0.911,26.108,0,22.041,0c-3.472,0-6.566,0.665-9.288,1.992
		c-2.721,1.328-5.035,3.063-6.94,5.206c-1.905,2.142-3.352,4.563-4.335,7.261C0.491,17.157,0,19.899,0,22.684
		C0,25.598,0.533,28.467,1.606,31.295z"/>
	<path class="v-svg" d="M39.326,0.257L56.29,45.881h10.411L83.473,0.257H70.297l-8.802,29.882L52.564,0.257H39.326z"/>
</g>
</svg>
