<svg version="1.1" baseProfile="full" xmlns="http://www.w3.org/2000/svg" xmlns:xlink="http://www.w3.org/1999/xlink" x="0px" y="0px"
	 viewBox="0 0 73 75" style="enable-background:new 0 0 73 75;" xml:space="preserve">
<path class="hyperlink-svg" style="fill-rule:evenodd;clip-rule:evenodd;" d="M69.165,66.465C60.98,77.864,51.41,74.571,51.41,74.571
	c-16.496-7.726-26.132-25.047-26.132-25.047c-3.29-11.463,5.17-18.553,5.17-18.553c4.7-6.146,7.813-2.128,7.813-2.128
	c2.057,3.783-2.702,6.559-2.702,6.559l-4.045,4.846c-1.763,5.065,0.882,9.372,0.882,9.372l11.837,13.045
	c5.289,4.813,9.444,4.561,9.444,4.561c6.044,0.252,11.208-7.854,11.208-7.854c2.645-5.192-1.259-10.006-1.259-10.006L52.417,37.461
	l0.882-9.119l17.377,17.858C76.721,54.433,69.165,66.465,69.165,66.465z M35.729,48.86c-2.585-3.444-0.194-6.239-0.194-6.239
	C47.74,31.392,39.33,24.516,39.33,24.516L23.151,9.766c-11.448-4.758-15.8,10.277-15.8,10.277
	C6.31,27.845,20.502,37.362,20.502,37.362l-0.567,10.276C5.175,36.314,0.444,25.372,0.444,25.372
	C-2.867,12.334,13.217,2.533,13.217,2.533c8.421-4.947,17.03,3.236,17.03,3.236l16.273,17.418
	c4.653,9.489-4.588,22.422-4.588,22.422C38.443,51.33,35.729,48.86,35.729,48.86z"/>
</svg>
