<svg version="1.1" baseProfile="full" xmlns="http://www.w3.org/2000/svg" xmlns:xlink="http://www.w3.org/1999/xlink" x="0px" y="0px"
	 viewBox="0 0 92.478 92.457" style="enable-background:new 0 0 92.478 92.457;"
	 xml:space="preserve">
<path class="linkdin-svg" style="fill-rule:evenodd;clip-rule:evenodd;" d="M72.87,92.457V56.715c0-8.311-2.836-13.979-9.927-13.979
	c-5.42,0-8.646,3.82-10.063,7.516c-0.515,1.318-0.646,3.166-0.646,5.01v37.195H32.632v-43.92c0-8.047-0.257-14.773-0.52-20.574
	h17.028l0.903,8.965h0.389c2.578-4.219,8.897-10.418,19.475-10.418c12.896,0,22.57,8.836,22.57,27.832v38.115H72.87z M10.189,20.047
	C3.997,20.047,0,15.563,0,10.023C0,4.352,4.128,0,10.446,0c6.319,0,10.189,4.352,10.316,10.023
	C20.763,15.563,16.766,20.047,10.189,20.047z M20.121,92.457H0.515V27.963h19.606V92.457z"/>
</svg>
