<svg version="1.1" baseProfile="full" xmlns="http://www.w3.org/2000/svg" xmlns:xlink="http://www.w3.org/1999/xlink" x="0px" y="0px"
	  viewBox="0 0 168 137" style="enable-background:new 0 0 168 137;" xml:space="preserve">
<path class="twitter-svg" style="fill-rule:evenodd;clip-rule:evenodd;" d="M75.624,41.797c2.31,0.284,4.587,0.479,6.895,0.594
	c-0.598-2.543-0.915-5.194-0.915-7.919C81.604,15.433,97.029,0,116.057,0c9.917,0,18.854,4.194,25.139,10.905
	c7.913-1.52,15.332-4.426,21.996-8.458c-2.566,8.043-7.977,14.813-15.048,19.13c7.001-0.788,13.677-2.647,19.858-5.416
	c-4.731,6.947-10.666,13.008-17.5,17.887c0.001,0.045,0.003,0.091,0.004,0.136c0.097,1.755,0.152,3.527,0.152,5.327
	c0,53.841-43.621,97.488-97.431,97.488c-19.641,0-37.924-5.816-53.225-15.82c2.624,0.306,5.292,0.468,7.997,0.468
	c16.029,0,30.77-5.518,42.431-14.757c-14.9-0.54-27.412-10.443-31.836-24.006c2.149,0.373,4.358,0.568,6.613,0.568
	c2.981,0,5.884-0.339,8.671-0.981c-15.611-3.45-27.29-17.375-27.29-34.033c0-0.092,0.003-0.184,0.004-0.275
	c4.649,2.405,9.85,3.889,15.363,4.212c-9.157-6.28-15.165-16.822-15.165-28.769c0-6.306,1.674-12.221,4.601-17.324
	c12.177,14.957,28.669,26.444,47.575,32.26c5.372,1.561,10.939,2.563,16.657,3.255"/>
</svg>
